<svg width="16" height="16" viewBox="0 0 16 16" fill="none" xmlns="http://www.w3.org/2000/svg">
<g clip-path="url(#clip0_22_1846)">
<path opacity="0.08" fill-rule="evenodd" clip-rule="evenodd" d="M15.9959 11.7619C13.1891 15.6916 7.76245 16.6612 3.78179 13.9224C-0.147837 11.2516 -1.16852 5.91003 1.50227 1.98041C1.53629 1.92937 1.5533 1.89535 1.58732 1.86133" fill="#FF4040"/>
<path d="M8.83404 3.44336C7.09888 3.44336 5.66992 4.87231 5.66992 6.60747C5.66992 8.34263 7.09888 9.77159 8.83404 9.77159C10.5692 9.77159 11.9981 8.34263 11.9981 6.60747C11.9981 4.87231 10.5692 3.44336 8.83404 3.44336ZM8.83404 9.31228C7.33704 9.31228 6.12923 8.08746 6.12923 6.60747C6.12923 5.12748 7.35405 3.90267 8.83404 3.90267C10.314 3.90267 11.5388 5.12748 11.5388 6.60747C11.5388 8.08746 10.314 9.31228 8.83404 9.31228Z" fill="#FF4040"/>
<path d="M14.2947 5.24617H13.8354C13.7163 4.82089 13.5462 4.41261 13.308 4.00434L13.6313 3.68113C13.7503 3.56205 13.8184 3.40894 13.8184 3.22182C13.8184 3.06872 13.7503 2.8986 13.6313 2.76251L12.5936 1.72482C12.3724 1.50367 11.9301 1.46965 11.709 1.72482L11.4028 2.06505C11.0115 1.8439 10.6202 1.67378 10.1609 1.53769V1.0954C10.178 0.772182 9.90577 0.5 9.54853 0.5H8.10256C7.74532 0.5 7.47314 0.772182 7.47314 1.12942V1.58873C7.04786 1.6908 6.63959 1.87792 6.23131 2.09907L5.9081 1.77585C5.65293 1.52068 5.24465 1.5547 5.02351 1.77585L3.98581 2.81355C3.86673 2.93263 3.79869 3.08573 3.79869 3.27285C3.79869 3.42595 3.86673 3.59607 3.98581 3.73216L4.30903 4.05537C4.08788 4.44664 3.91777 4.8379 3.78168 5.2972H3.32237C2.98214 5.24617 2.70996 5.51835 2.70996 5.8926V7.33857C2.70996 7.69581 2.98214 7.96799 3.33938 7.96799H3.79869C3.91777 8.39327 4.08788 8.80155 4.32604 9.20982L4.01984 9.51602C3.90076 9.6351 3.83271 9.78821 3.83271 9.97533C3.83271 10.1284 3.90076 10.2985 4.01984 10.4346L5.05753 11.4723C5.3127 11.7275 5.72097 11.7275 5.94212 11.4723L6.26534 11.1491C6.6566 11.3703 7.04786 11.5404 7.50717 11.6765V12.1358C7.50717 12.476 7.77935 12.7652 8.13659 12.7652H9.58255C9.92278 12.7652 10.212 12.493 10.212 12.1358V11.6765C10.6373 11.5574 11.0455 11.3873 11.4538 11.1491L11.777 11.4723C12.0322 11.7275 12.4405 11.6935 12.6616 11.4723L13.6993 10.4346C13.8184 10.3156 13.8864 10.1625 13.8864 9.97533C13.8864 9.82223 13.8184 9.65211 13.6993 9.51602L13.3761 9.19281C13.5972 8.80155 13.7673 8.41028 13.9034 7.95098H14.3627C14.703 7.95098 14.9922 7.6788 14.9922 7.32156V5.87559C14.9241 5.51835 14.6519 5.24617 14.2947 5.24617ZM14.4818 7.32156C14.4818 7.40661 14.4138 7.50868 14.2947 7.50868H13.4782L13.4441 7.6788C13.3251 8.17213 13.1209 8.66545 12.8487 9.10775L12.7637 9.26085L13.3251 9.82223C13.3931 9.89027 13.3931 10.0094 13.3251 10.0774L12.3044 11.1151C12.2363 11.1831 12.1172 11.1831 12.0492 11.1151L11.4878 10.5537L11.3347 10.6388C10.8754 10.911 10.4161 11.1151 9.90577 11.2342L9.71864 11.2512V12.0677C9.71864 12.1528 9.63359 12.2549 9.53152 12.2549H8.08555C8.00049 12.2549 7.89843 12.1868 7.89843 12.0677V11.2512L7.74532 11.2172C7.252 11.0981 6.75867 10.8939 6.31637 10.6218L6.16327 10.5367L5.60189 11.1321C5.53385 11.2001 5.41477 11.2001 5.34672 11.1321L4.30903 10.0944C4.24098 10.0264 4.24098 9.90728 4.30903 9.83924L4.8704 9.27786L4.78535 9.12476C4.51317 8.66545 4.30903 8.20615 4.18995 7.69581L4.17294 7.50868H3.35639C3.23731 7.50868 3.16927 7.42362 3.16927 7.32156V5.87559C3.16927 5.79053 3.23731 5.68847 3.35639 5.68847H4.17294L4.22397 5.50134C4.34305 5.00801 4.54719 4.53169 4.81937 4.07239L4.90443 3.91928L4.30903 3.35791C4.24098 3.28986 4.24098 3.17078 4.30903 3.10274L5.34672 2.06505C5.41477 1.997 5.53385 1.997 5.60189 2.06505L6.16327 2.62642L6.31637 2.54136C6.77568 2.26918 7.23498 2.06505 7.74532 1.94597L7.93245 1.92895V1.12942C7.93245 1.01034 8.01751 0.942295 8.11958 0.942295H9.56554C9.6506 0.942295 9.75267 1.01034 9.75267 1.12942V1.94597L9.93979 1.997C10.4331 2.11608 10.9094 2.32022 11.3687 2.5924L11.5218 2.67745L12.0832 2.08206C12.1513 2.01401 12.2703 2.01401 12.3384 2.08206L13.3761 3.11975C13.4441 3.1878 13.4441 3.30687 13.3761 3.37492L12.8147 3.9363L12.8998 4.0894C13.172 4.51468 13.3761 5.00801 13.4952 5.51835L13.5462 5.70548H14.3627C14.4478 5.70548 14.5499 5.79053 14.5499 5.8926L14.4818 7.32156Z" fill="#FF4040"/>
<path d="M8.8338 4.34473C7.59197 4.34473 6.57129 5.36541 6.57129 6.60724C6.57129 7.84907 7.59197 8.86975 8.8338 8.86975C10.0756 8.86975 11.0963 7.84907 11.0963 6.60724C11.0963 5.36541 10.0756 4.34473 8.8338 4.34473ZM8.8338 8.41044C7.84714 8.41044 7.0306 7.5939 7.0306 6.60724C7.0306 5.62058 7.83013 4.78702 8.8338 4.78702C9.83747 4.78702 10.637 5.60357 10.637 6.60724C10.637 7.61091 9.82046 8.41044 8.8338 8.41044Z" fill="#FF4040"/>
</g>
<defs>
<clipPath id="clip0_22_1846">
<rect width="15.9907" height="14.97" fill="white" transform="translate(0.00488281 0.5)"/>
</clipPath>
</defs>
</svg>
