<svg width="40" height="40" viewBox="0 0 40 40" fill="none" xmlns="http://www.w3.org/2000/svg">
<path opacity="0.2" d="M35 11.25L32.5 30L20 36.25L7.5 30L5 11.25L20 5L35 11.25Z" fill="#D71D1D"/>
<path d="M35.4813 10.0969L20.4813 3.84688C20.3289 3.78268 20.1653 3.7496 20 3.7496C19.8347 3.7496 19.6711 3.78268 19.5188 3.84688L4.51877 10.0969C4.26499 10.2027 4.0532 10.3893 3.9162 10.6277C3.7792 10.8661 3.72464 11.1431 3.76095 11.4156L6.26095 30.1656C6.28784 30.3679 6.36384 30.5605 6.48232 30.7267C6.6008 30.8928 6.75815 31.0274 6.94064 31.1188L19.4406 37.3688C19.6143 37.4557 19.8058 37.5009 20 37.5009C20.1942 37.5009 20.3857 37.4557 20.5594 37.3688L33.0594 31.1188C33.2419 31.0274 33.3992 30.8928 33.5177 30.7267C33.6362 30.5605 33.7122 30.3679 33.7391 30.1656L36.2391 11.4156C36.2754 11.1431 36.2208 10.8661 36.0838 10.6277C35.9468 10.3893 35.735 10.2027 35.4813 10.0969ZM31.3485 29.1781L20 34.8531L8.65158 29.1781L6.36564 12.0313L20 6.35469L33.6344 12.0313L31.3485 29.1781ZM18.9063 13.1438L12.6563 24.3938C12.5767 24.5374 12.5261 24.6953 12.5075 24.8585C12.4889 25.0216 12.5027 25.1869 12.5479 25.3447C12.5932 25.5026 12.6691 25.65 12.7714 25.7785C12.8736 25.907 13.0001 26.0141 13.1438 26.0938C13.2874 26.1734 13.4453 26.2239 13.6085 26.2425C13.7716 26.2611 13.9369 26.2474 14.0947 26.2021C14.2526 26.1568 14.4 26.0809 14.5285 25.9787C14.657 25.8764 14.7642 25.7499 14.8438 25.6063L16.5625 22.5H23.4375L25.1563 25.6063C25.2359 25.7499 25.343 25.8764 25.4715 25.9787C25.6 26.0809 25.7474 26.1568 25.9053 26.2021C26.0632 26.2474 26.2284 26.2611 26.3916 26.2425C26.5547 26.2239 26.7126 26.1734 26.8563 26.0938C26.9999 26.0141 27.1264 25.907 27.2287 25.7785C27.3309 25.65 27.4068 25.5026 27.4521 25.3447C27.4974 25.1869 27.5111 25.0216 27.4925 24.8585C27.4739 24.6953 27.4234 24.5374 27.3438 24.3938L21.0938 13.1438C20.9857 12.9484 20.8272 12.7855 20.6349 12.6721C20.4425 12.5587 20.2233 12.4989 20 12.4989C19.7767 12.4989 19.5575 12.5587 19.3652 12.6721C19.1728 12.7855 19.0144 12.9484 18.9063 13.1438ZM22.0422 20H17.9578L20 16.3234L22.0422 20Z" fill="#D71D1D"/>
</svg>
