<svg width="40" height="40" viewBox="0 0 40 40" fill="none" xmlns="http://www.w3.org/2000/svg">
<path opacity="0.2" d="M33.75 12.5C33.75 16.6422 27.5938 20 20 20C12.4062 20 6.25 16.6422 6.25 12.5C6.25 8.35781 12.4062 5 20 5C27.5938 5 33.75 8.35781 33.75 12.5Z" fill="#F5F5F5"/>
<path d="M20 3.75C11.5891 3.75 5 7.59375 5 12.5V27.5C5 32.4062 11.5891 36.25 20 36.25C28.4109 36.25 35 32.4062 35 27.5V12.5C35 7.59375 28.4109 3.75 20 3.75ZM32.5 20C32.5 21.5031 31.2687 23.0359 29.1234 24.2062C26.7078 25.5234 23.4672 26.25 20 26.25C16.5328 26.25 13.2922 25.5234 10.8766 24.2062C8.73125 23.0359 7.5 21.5031 7.5 20V17.4C10.1656 19.7437 14.7234 21.25 20 21.25C25.2766 21.25 29.8344 19.7375 32.5 17.4V20ZM10.8766 8.29375C13.2922 6.97656 16.5328 6.25 20 6.25C23.4672 6.25 26.7078 6.97656 29.1234 8.29375C31.2687 9.46406 32.5 10.9969 32.5 12.5C32.5 14.0031 31.2687 15.5359 29.1234 16.7062C26.7078 18.0234 23.4672 18.75 20 18.75C16.5328 18.75 13.2922 18.0234 10.8766 16.7062C8.73125 15.5359 7.5 14.0031 7.5 12.5C7.5 10.9969 8.73125 9.46406 10.8766 8.29375ZM29.1234 31.7062C26.7078 33.0234 23.4672 33.75 20 33.75C16.5328 33.75 13.2922 33.0234 10.8766 31.7062C8.73125 30.5359 7.5 29.0031 7.5 27.5V24.9C10.1656 27.2437 14.7234 28.75 20 28.75C25.2766 28.75 29.8344 27.2375 32.5 24.9V27.5C32.5 29.0031 31.2687 30.5359 29.1234 31.7062Z" fill="#F5F5F5"/>
</svg>
