<svg width="40" height="40" viewBox="0 0 40 40" fill="none" xmlns="http://www.w3.org/2000/svg">
<path opacity="0.2" d="M32.5 13.75H23.75V5L32.5 13.75Z" fill="#E6973D"/>
<path d="M20 23.75C20 24.0815 19.8683 24.3995 19.6339 24.6339C19.3995 24.8683 19.0815 25 18.75 25H17.5V32.5C17.5 32.8315 17.3683 33.1495 17.1339 33.3839C16.8995 33.6183 16.5815 33.75 16.25 33.75C15.9185 33.75 15.6005 33.6183 15.3661 33.3839C15.1317 33.1495 15 32.8315 15 32.5V25H13.75C13.4185 25 13.1005 24.8683 12.8661 24.6339C12.6317 24.3995 12.5 24.0815 12.5 23.75C12.5 23.4185 12.6317 23.1005 12.8661 22.8661C13.1005 22.6317 13.4185 22.5 13.75 22.5H18.75C19.0815 22.5 19.3995 22.6317 19.6339 22.8661C19.8683 23.1005 20 23.4185 20 23.75ZM10 22.5C9.66848 22.5 9.35054 22.6317 9.11612 22.8661C8.8817 23.1005 8.75 23.4185 8.75 23.75V26.875H6.25V23.75C6.25 23.4185 6.1183 23.1005 5.88388 22.8661C5.64946 22.6317 5.33152 22.5 5 22.5C4.66848 22.5 4.35054 22.6317 4.11612 22.8661C3.8817 23.1005 3.75 23.4185 3.75 23.75V32.5C3.75 32.8315 3.8817 33.1495 4.11612 33.3839C4.35054 33.6183 4.66848 33.75 5 33.75C5.33152 33.75 5.64946 33.6183 5.88388 33.3839C6.1183 33.1495 6.25 32.8315 6.25 32.5V29.375H8.75V32.5C8.75 32.8315 8.8817 33.1495 9.11612 33.3839C9.35054 33.6183 9.66848 33.75 10 33.75C10.3315 33.75 10.6495 33.6183 10.8839 33.3839C11.1183 33.1495 11.25 32.8315 11.25 32.5V23.75C11.25 23.4185 11.1183 23.1005 10.8839 22.8661C10.6495 22.6317 10.3315 22.5 10 22.5ZM37.5 31.25H35.625V23.75C35.625 23.4185 35.4933 23.1005 35.2589 22.8661C35.0245 22.6317 34.7065 22.5 34.375 22.5C34.0435 22.5 33.7255 22.6317 33.4911 22.8661C33.2567 23.1005 33.125 23.4185 33.125 23.75V32.5C33.125 32.8315 33.2567 33.1495 33.4911 33.3839C33.7255 33.6183 34.0435 33.75 34.375 33.75H37.5C37.8315 33.75 38.1495 33.6183 38.3839 33.3839C38.6183 33.1495 38.75 32.8315 38.75 32.5C38.75 32.1685 38.6183 31.8505 38.3839 31.6161C38.1495 31.3817 37.8315 31.25 37.5 31.25ZM30.3344 22.5453C30.0709 22.4721 29.7907 22.4873 29.5367 22.5887C29.2827 22.69 29.0689 22.8718 28.9281 23.1063L26.25 27.5703L23.5719 23.1063C23.4312 22.8718 23.2175 22.6899 22.9636 22.5885C22.7097 22.4871 22.4295 22.4717 22.166 22.5448C21.9025 22.6178 21.6703 22.7753 21.5048 22.993C21.3394 23.2106 21.2499 23.4766 21.25 23.75V32.5C21.25 32.8315 21.3817 33.1495 21.6161 33.3839C21.8505 33.6183 22.1685 33.75 22.5 33.75C22.8315 33.75 23.1495 33.6183 23.3839 33.3839C23.6183 33.1495 23.75 32.8315 23.75 32.5V28.2625L25.1781 30.6437C25.2892 30.8288 25.4463 30.982 25.6341 31.0884C25.822 31.1947 26.0341 31.2506 26.25 31.2506C26.4659 31.2506 26.678 31.1947 26.8659 31.0884C27.0537 30.982 27.2108 30.8288 27.3219 30.6437L28.75 28.2625V32.5C28.75 32.8315 28.8817 33.1495 29.1161 33.3839C29.3505 33.6183 29.6685 33.75 30 33.75C30.3315 33.75 30.6495 33.6183 30.8839 33.3839C31.1183 33.1495 31.25 32.8315 31.25 32.5V23.75C31.2501 23.4767 31.1605 23.2109 30.9952 22.9934C30.8298 22.7758 30.5977 22.6184 30.3344 22.5453ZM32.5 18.75C32.1685 18.75 31.8505 18.6183 31.6161 18.3839C31.3817 18.1495 31.25 17.8315 31.25 17.5V15H23.75C23.4185 15 23.1005 14.8683 22.8661 14.6339C22.6317 14.3995 22.5 14.0815 22.5 13.75V6.25H8.75V17.5C8.75 17.8315 8.6183 18.1495 8.38388 18.3839C8.14946 18.6183 7.83152 18.75 7.5 18.75C7.16848 18.75 6.85054 18.6183 6.61612 18.3839C6.3817 18.1495 6.25 17.8315 6.25 17.5V6.25C6.25 5.58696 6.51339 4.95107 6.98223 4.48223C7.45107 4.01339 8.08696 3.75 8.75 3.75H23.75C23.9142 3.74987 24.0768 3.78209 24.2286 3.84483C24.3803 3.90756 24.5182 3.99958 24.6344 4.11563L33.3844 12.8656C33.5004 12.9818 33.5924 13.1197 33.6552 13.2714C33.7179 13.4232 33.7501 13.5858 33.75 13.75V17.5C33.75 17.8315 33.6183 18.1495 33.3839 18.3839C33.1495 18.6183 32.8315 18.75 32.5 18.75ZM29.4828 12.5L25 8.01719V12.5H29.4828Z" fill="#E6973D"/>
</svg>
