<svg width="40" height="40" viewBox="0 0 40 40" fill="none" xmlns="http://www.w3.org/2000/svg">
<path opacity="0.2" d="M32.8531 32.8531C30.161 35.5453 22.2281 31.9734 15.125 24.875C8.0219 17.7766 4.45471 9.84375 7.1469 7.14687C9.83908 4.45 17.7719 8.02656 24.875 15.125C31.9781 22.2234 35.5453 30.1562 32.8531 32.8531Z" fill="#2C70AF"/>
<path d="M30.6438 20C34.4953 14.5922 36.4594 9.00312 33.7281 6.27187C30.9969 3.54062 25.4078 5.50469 20 9.35625C14.5922 5.50469 9.00314 3.54062 6.27189 6.27187C3.54064 9.00312 5.5047 14.5922 9.35626 20C5.5047 25.4078 3.54064 30.9969 6.27189 33.7281C7.15158 34.6078 8.32658 35 9.69533 35C12.5828 35 16.3328 33.2547 20.0078 30.6437C23.6672 33.2547 27.4172 35 30.3125 35C31.6813 35 32.8578 34.6062 33.736 33.7281C36.4594 30.9969 34.4953 25.4078 30.6438 20ZM31.961 8.03906C33.1547 9.23281 32.3484 13.1016 29.0672 17.9266C28.0291 16.6415 26.924 15.4122 25.7563 14.2437C24.5877 13.0777 23.3584 11.974 22.0735 10.9375C26.8985 7.65625 30.7672 6.84375 31.961 8.03906ZM27.5453 20C26.4397 21.3987 25.2522 22.7307 23.9891 23.9891C22.7307 25.2522 21.3987 26.4396 20 27.5453C18.6013 26.4396 17.2693 25.2522 16.011 23.9891C14.7479 22.7307 13.5604 21.3987 12.4547 20C14.673 17.2046 17.2046 14.673 20 12.4547C21.3987 13.5604 22.7307 14.7478 23.9891 16.0109C25.2522 17.2693 26.4397 18.6013 27.5453 20ZM8.03908 8.03906C8.38283 7.69375 8.95001 7.51562 9.69845 7.51562C11.5453 7.51562 14.4938 8.59375 17.925 10.9375C16.6413 11.9749 15.4126 13.0785 14.2438 14.2437C13.0777 15.4123 11.974 16.6417 10.9375 17.9266C7.65626 13.1016 6.84533 9.23281 8.03908 8.03906ZM8.03908 31.9609C6.84533 30.7672 7.65626 26.8984 10.9375 22.0734C11.9756 23.3585 13.0808 24.5878 14.2485 25.7562C15.4163 26.9214 16.644 28.025 17.9266 29.0625C13.1016 32.3437 9.23283 33.1562 8.03908 31.9609ZM31.961 31.9609C30.7672 33.1562 26.8985 32.3484 22.0735 29.0672C23.3578 28.0283 24.587 26.9231 25.7563 25.7562C26.9224 24.5877 28.026 23.3583 29.0625 22.0734C32.3438 26.8984 33.1547 30.7672 31.961 31.9609ZM21.875 20C21.875 20.3708 21.765 20.7333 21.559 21.0417C21.353 21.35 21.0602 21.5904 20.7175 21.7323C20.3749 21.8742 19.9979 21.9113 19.6342 21.839C19.2705 21.7666 18.9364 21.588 18.6742 21.3258C18.412 21.0636 18.2334 20.7295 18.161 20.3658C18.0887 20.0021 18.1258 19.6251 18.2677 19.2825C18.4097 18.9399 18.65 18.647 18.9583 18.441C19.2667 18.235 19.6292 18.125 20 18.125C20.4973 18.125 20.9742 18.3225 21.3258 18.6742C21.6775 19.0258 21.875 19.5027 21.875 20Z" fill="#2C70AF"/>
</svg>
