<svg width="40" height="40" viewBox="0 0 40 40" fill="none" xmlns="http://www.w3.org/2000/svg">
<path opacity="0.2" d="M32.5 13.75H23.75V5L32.5 13.75Z" fill="#2C5AE2"/>
<path d="M33.3844 12.8656L24.6344 4.11563C24.5182 3.99958 24.3803 3.90756 24.2286 3.84483C24.0768 3.78209 23.9142 3.74987 23.75 3.75H8.75C8.08696 3.75 7.45107 4.01339 6.98223 4.48223C6.51339 4.95107 6.25 5.58696 6.25 6.25V17.5C6.25 17.8315 6.3817 18.1495 6.61612 18.3839C6.85054 18.6183 7.16848 18.75 7.5 18.75C7.83152 18.75 8.14946 18.6183 8.38388 18.3839C8.6183 18.1495 8.75 17.8315 8.75 17.5V6.25H22.5V13.75C22.5 14.0815 22.6317 14.3995 22.8661 14.6339C23.1005 14.8683 23.4185 15 23.75 15H31.25V33.75H27.5C27.1685 33.75 26.8505 33.8817 26.6161 34.1161C26.3817 34.3505 26.25 34.6685 26.25 35C26.25 35.3315 26.3817 35.6495 26.6161 35.8839C26.8505 36.1183 27.1685 36.25 27.5 36.25H31.25C31.913 36.25 32.5489 35.9866 33.0178 35.5178C33.4866 35.0489 33.75 34.413 33.75 33.75V13.75C33.7501 13.5858 33.7179 13.4232 33.6552 13.2714C33.5924 13.1197 33.5004 12.9818 33.3844 12.8656ZM25 8.01719L29.4828 12.5H25V8.01719ZM23.0953 30.6734C23.0466 31.1515 22.8926 31.6129 22.6443 32.0243C22.396 32.4358 22.0596 32.7872 21.6594 33.0531C20.8484 33.5937 19.8438 33.75 18.9266 33.75C18.1286 33.745 17.3344 33.64 16.5625 33.4375C16.4025 33.3951 16.2526 33.3213 16.1214 33.2204C15.9901 33.1196 15.8802 32.9937 15.7981 32.85C15.7159 32.7064 15.663 32.5479 15.6426 32.3836C15.6222 32.2194 15.6345 32.0527 15.679 31.8933C15.7235 31.7339 15.7992 31.5849 15.9017 31.455C16.0042 31.3251 16.1315 31.2168 16.2762 31.1365C16.4209 31.0561 16.5801 31.0053 16.7446 30.987C16.9091 30.9687 17.0755 30.9832 17.2344 31.0297C17.9188 31.2172 19.5781 31.4516 20.2891 30.9734C20.4266 30.8812 20.575 30.7359 20.6234 30.3594C20.6781 29.9422 20.5125 29.7188 18.6266 29.1734C17.1656 28.7516 14.7203 28.0438 15.0328 25.5625C15.0816 25.0938 15.2328 24.6416 15.4758 24.2379C15.7188 23.8343 16.0477 23.489 16.4391 23.2266C18.2891 21.9766 21.2375 22.7094 21.5687 22.7953C21.8895 22.8796 22.1636 23.0879 22.3308 23.3744C22.4979 23.6608 22.5445 24.0019 22.4602 24.3227C22.3758 24.6434 22.1675 24.9175 21.8811 25.0847C21.5947 25.2519 21.2536 25.2984 20.9328 25.2141C20.2312 25.0312 18.5531 24.8141 17.8344 25.3016C17.7402 25.3651 17.6626 25.4504 17.6082 25.5502C17.5538 25.65 17.5242 25.7614 17.5219 25.875C17.5031 26.0156 17.5 26.0453 17.6953 26.1719C18.0562 26.4047 18.7031 26.5906 19.3281 26.7719C20.8578 27.2141 23.4453 27.9688 23.0953 30.6734ZM13.75 23.75C13.75 24.0815 13.6183 24.3995 13.3839 24.6339C13.1495 24.8683 12.8315 25 12.5 25H10.625V32.5C10.625 32.8315 10.4933 33.1495 10.2589 33.3839C10.0245 33.6183 9.70652 33.75 9.375 33.75C9.04348 33.75 8.72554 33.6183 8.49112 33.3839C8.2567 33.1495 8.125 32.8315 8.125 32.5V25H6.25C5.91848 25 5.60054 24.8683 5.36612 24.6339C5.1317 24.3995 5 24.0815 5 23.75C5 23.4185 5.1317 23.1005 5.36612 22.8661C5.60054 22.6317 5.91848 22.5 6.25 22.5H12.5C12.8315 22.5 13.1495 22.6317 13.3839 22.8661C13.6183 23.1005 13.75 23.4185 13.75 23.75Z" fill="#2C5AE2"/>
</svg>
