<svg width="40" height="40" viewBox="0 0 40 40" fill="none" xmlns="http://www.w3.org/2000/svg">
<path opacity="0.2" d="M32.5 13.75H23.75V5L32.5 13.75Z" fill="#3A7E54"/>
<path d="M13.6782 24.1703L10.5532 32.9203C10.4666 33.1632 10.3069 33.3734 10.0961 33.522C9.88534 33.6706 9.63375 33.7504 9.37585 33.7504C9.11796 33.7504 8.86637 33.6706 8.65559 33.522C8.44481 33.3734 8.28515 33.1632 8.19851 32.9203L5.07351 24.1703C5.01831 24.0157 4.99411 23.8517 5.00228 23.6878C5.01045 23.5238 5.05084 23.3631 5.12114 23.2147C5.19144 23.0663 5.29027 22.9333 5.41199 22.8231C5.5337 22.713 5.67593 22.6279 5.83054 22.5727C5.98515 22.5175 6.14912 22.4933 6.31308 22.5014C6.47705 22.5096 6.6378 22.55 6.78615 22.6203C6.93451 22.6906 7.06757 22.7894 7.17773 22.9111C7.28789 23.0329 7.373 23.1751 7.4282 23.3297L9.37507 28.7828L11.3235 23.3297C11.435 23.0174 11.6659 22.7623 11.9656 22.6203C12.2652 22.4783 12.6089 22.4612 12.9212 22.5727C13.2334 22.6841 13.4886 22.9151 13.6306 23.2147C13.7725 23.5143 13.7897 23.8581 13.6782 24.1703ZM32.5001 25C32.8316 25 33.1495 24.8683 33.384 24.6339C33.6184 24.3995 33.7501 24.0815 33.7501 23.75C33.7501 23.4185 33.6184 23.1005 33.384 22.8661C33.1495 22.6317 32.8316 22.5 32.5001 22.5H27.5001C27.1686 22.5 26.8506 22.6317 26.6162 22.8661C26.3818 23.1005 26.2501 23.4185 26.2501 23.75V32.5C26.2501 32.8315 26.3818 33.1495 26.6162 33.3839C26.8506 33.6183 27.1686 33.75 27.5001 33.75H32.5001C32.8316 33.75 33.1495 33.6183 33.384 33.3839C33.6184 33.1495 33.7501 32.8315 33.7501 32.5C33.7501 32.1685 33.6184 31.8505 33.384 31.6161C33.1495 31.3817 32.8316 31.25 32.5001 31.25H28.7501V29.375H31.2501C31.5816 29.375 31.8995 29.2433 32.134 29.0089C32.3684 28.7745 32.5001 28.4565 32.5001 28.125C32.5001 27.7935 32.3684 27.4755 32.134 27.2411C31.8995 27.0067 31.5816 26.875 31.2501 26.875H28.7501V25H32.5001ZM22.5001 22.5C22.1686 22.5 21.8506 22.6317 21.6162 22.8661C21.3818 23.1005 21.2501 23.4185 21.2501 23.75V29.6875C21.2501 30.1019 21.0855 30.4993 20.7924 30.7924C20.4994 31.0854 20.102 31.25 19.6876 31.25C19.2732 31.25 18.8757 31.0854 18.5827 30.7924C18.2897 30.4993 18.1251 30.1019 18.1251 29.6875V23.75C18.1251 23.4185 17.9934 23.1005 17.759 22.8661C17.5245 22.6317 17.2066 22.5 16.8751 22.5C16.5436 22.5 16.2256 22.6317 15.9912 22.8661C15.7568 23.1005 15.6251 23.4185 15.6251 23.75V29.6875C15.6251 30.7649 16.0531 31.7983 16.815 32.5601C17.5768 33.322 18.6101 33.75 19.6876 33.75C20.765 33.75 21.7983 33.322 22.5602 32.5601C23.3221 31.7983 23.7501 30.7649 23.7501 29.6875V23.75C23.7501 23.4185 23.6184 23.1005 23.384 22.8661C23.1495 22.6317 22.8316 22.5 22.5001 22.5ZM33.7501 13.75V17.5C33.7501 17.8315 33.6184 18.1495 33.384 18.3839C33.1495 18.6183 32.8316 18.75 32.5001 18.75C32.1686 18.75 31.8506 18.6183 31.6162 18.3839C31.3818 18.1495 31.2501 17.8315 31.2501 17.5V15H23.7501C23.4186 15 23.1006 14.8683 22.8662 14.6339C22.6318 14.3995 22.5001 14.0815 22.5001 13.75V6.25H8.75007V17.5C8.75007 17.8315 8.61838 18.1495 8.38396 18.3839C8.14953 18.6183 7.83159 18.75 7.50007 18.75C7.16855 18.75 6.85061 18.6183 6.61619 18.3839C6.38177 18.1495 6.25007 17.8315 6.25007 17.5V6.25C6.25007 5.58696 6.51346 4.95107 6.9823 4.48223C7.45115 4.01339 8.08703 3.75 8.75007 3.75H23.7501C23.9143 3.74987 24.0769 3.78209 24.2286 3.84483C24.3804 3.90756 24.5183 3.99958 24.6344 4.11563L33.3844 12.8656C33.5005 12.9818 33.5925 13.1197 33.6552 13.2714C33.718 13.4232 33.7502 13.5858 33.7501 13.75ZM29.4829 12.5L25.0001 8.01719V12.5H29.4829Z" fill="#3A7E54"/>
</svg>
